<?xml version="1.0" encoding="utf-8"?>
<!-- Generator: Adobe Illustrator 23.0.1, SVG Export Plug-In . SVG Version: 6.00 Build 0)  -->
<svg version="1.1" id="Layer_1" xmlns="http://www.w3.org/2000/svg" xmlns:xlink="http://www.w3.org/1999/xlink" x="0px" y="0px"
	 viewBox="0 0 203.33 168" style="enable-background:new 0 0 203.33 168;" xml:space="preserve">
<style type="text/css">
	.st0{fill:#C9093D;}
</style>
<path class="st0" d="M152.28,28.79h-18.15v-16.1c0-1.27-1.03-2.3-2.3-2.3s-2.3,1.03-2.3,2.3l-0.26,16.1H74.06l0-16.1
	c0-1.27-1.03-2.3-2.3-2.3s-2.3,1.03-2.3,2.3v16.1h-18.4c-7.62,0-13.8,6.18-13.8,13.8v101.23c0,7.62,6.18,13.8,13.8,13.8h101.23
	c7.62,0,13.8-6.18,13.8-13.8V42.59C166.08,34.97,159.9,28.79,152.28,28.79z M161.48,143.81c0,5.07-4.13,9.2-9.2,9.2H51.05
	c-5.07,0-8.94-4.13-8.94-9.2V70.2h119.63v73.62H161.48z M161.48,65.6H41.85V42.59c0-5.07,4.13-9.2,8.94-9.2h18.4v13.8
	c0,1.27,1.03,2.3,2.3,2.3c1.27,0,2.3-1.03,2.3-2.3v-13.8h55.21v13.8c0,1.27,1.03,2.3,2.3,2.3s2.3-1.03,2.3-2.3v-13.8h18.4
	c5.07,0,9.2,4.13,9.2,9.2V65.6H161.48z M85.96,119.49l-2.58,15.69c-0.35,2.25,1.34,4.04,3.27,4.04c0.51,0,1.03-0.13,1.53-0.4
	l13.49-7.41l13.49,7.41c0.5,0.28,1.02,0.4,1.53,0.4c1.92,0,3.63-1.79,3.26-4.03l-2.58-15.69l10.91-11.11c1.96-2,0.88-5.48-1.83-5.89
	l-15.08-2.3l-6.74-14.28c-0.61-1.29-1.79-1.92-3.23-1.92c-1.17,0-2.35,0.64-2.95,1.92l-6.48,14.27l-15.08,2.3
	c-2.71,0.41-3.79,3.89-1.83,5.89L85.96,119.49z M92.66,104.73l2.42-0.37l6.59-13.95l6.59,13.95l15.22,2.32l-11.03,11.23l2.56,15.55
	l-13.33-7.32l-13.33,7.32l2.56-15.55l-11.03-11.23L92.66,104.73z"/>
</svg>
