<?xml version="1.0" encoding="utf-8"?>
<!-- Generator: Adobe Illustrator 23.0.1, SVG Export Plug-In . SVG Version: 6.00 Build 0)  -->
<svg version="1.1" id="Layer_1" xmlns="http://www.w3.org/2000/svg" xmlns:xlink="http://www.w3.org/1999/xlink" x="0px" y="0px"
	 viewBox="0 0 203.33 168" style="enable-background:new 0 0 203.33 168;" xml:space="preserve">
<style type="text/css">
	.st0{fill:#C9093D;}
</style>
<path class="st0" d="M108.56,88.6H76.36c-1.27,0-2.3,1.04-2.3,2.3s1.04,2.3,2.3,2.3h32.21c1.27,0,2.3-1.04,2.3-2.3
	S109.83,88.6,108.56,88.6z M166.08,19.58H64.85c-5.09,0-9.2,4.12-9.2,9.2v103.53c0,6.34-5.16,11.5-11.5,11.5s-11.5-5.15-11.5-11.5
	V49.49c0-1.27-1.03-2.3-2.3-2.3c-1.27,0-2.3,1.04-2.3,2.3v82.82c0,8.89,7.23,16.1,16.1,16.1h112.73c10.16,0,18.4-8.24,18.4-18.4
	V28.79C175.28,23.7,171.17,19.58,166.08,19.58z M170.68,130.01c0,7.61-6.19,13.8-13.8,13.8H55.38c3-2.93,4.87-6.99,4.87-11.5V28.79
	c0-2.54,2.06-4.6,4.6-4.6h101.23c2.54,0,4.6,2.06,4.6,4.6V130.01z M108.56,107.01H76.36c-1.27,0-2.3,1.04-2.3,2.3s1.04,2.3,2.3,2.3
	h32.21c1.27,0,2.3-1.03,2.3-2.3C110.86,108.04,109.83,107.01,108.56,107.01z M154.58,107.01h-32.21c-1.27,0-2.3,1.03-2.3,2.3
	c0,1.27,1.04,2.3,2.3,2.3h32.21c1.27,0,2.3-1.03,2.3-2.3C156.88,108.04,155.84,107.01,154.58,107.01z M152.28,37.99H78.66
	c-2.53,0-4.6,2.07-4.6,4.6V70.2c0,2.53,2.07,4.6,4.6,4.6h73.62c2.53,0,4.6-2.07,4.6-4.6V42.59
	C156.88,40.06,154.81,37.99,152.28,37.99z M152.28,70.2H78.66V42.59h73.62V70.2z M154.58,88.6h-32.21c-1.27,0-2.3,1.04-2.3,2.3
	s1.04,2.3,2.3,2.3h32.21c1.27,0,2.3-1.04,2.3-2.3S155.84,88.6,154.58,88.6z"/>
</svg>
